<?xml version="1.0" encoding="iso-8859-1"?>
<!-- Generator: Adobe Illustrator 17.1.0, SVG Export Plug-In . SVG Version: 6.00 Build 0)  -->
<!DOCTYPE svg PUBLIC "-//W3C//DTD SVG 1.1//EN" "http://www.w3.org/Graphics/SVG/1.1/DTD/svg11.dtd">
<svg version="1.1" id="Capa_1" xmlns="http://www.w3.org/2000/svg" xmlns:xlink="http://www.w3.org/1999/xlink" x="0px" y="0px"
	 viewBox="0 0 416.501 416.501" fill="#0EBFF2" style="enable-background:new 0 0 416.501 416.501;" xml:space="preserve">
<path id="XMLID_1109_" d="M193.96,68.161c-7.926-20.279-16.908-43.264,1.287-65.26c2.814-3.403,7.858-3.882,11.263-1.065
	c3.405,2.816,3.882,7.859,1.065,11.264c-12.194,14.743-5.947,30.728,1.287,49.238c7.925,20.278,16.907,43.262-1.287,65.257
	c-1.582,1.913-3.866,2.901-6.169,2.901c-1.796,0-3.603-0.602-5.095-1.836c-3.404-2.816-3.881-7.859-1.064-11.263
	C207.44,102.655,201.193,86.67,193.96,68.161z M362.642,249.917l-7.46,43.384c-2.998,17.44-19.67,31.628-37.164,31.628h-20.562
	l-7.92,50.681c-0.608,3.895-3.963,6.765-7.904,6.765H121.188c-3.941,0-7.296-2.871-7.904-6.765L80.869,168.167
	c-0.36-2.309,0.307-4.661,1.826-6.437c1.521-1.776,3.74-2.798,6.078-2.798h225.275c2.337,0,4.558,1.022,6.078,2.798
	c1.52,1.775,2.187,4.127,1.826,6.437l-7.409,47.411h19.525c8.977,0,16.929,3.57,22.393,10.053
	C361.928,232.117,364.181,240.968,362.642,249.917z M304.701,174.932H98.12l29.915,191.444h146.751l7.908-50.61
	c0.008-0.054,0.017-0.108,0.025-0.162L304.701,174.932z M344.226,235.942c-2.371-2.814-5.979-4.364-10.157-4.364h-22.025
	l-12.087,77.351h18.062c9.889,0,19.687-8.398,21.395-18.34l7.46-43.384C347.621,242.855,346.682,238.855,344.226,235.942z
	 M341.435,400.501H61.386c-4.418,0-8,3.582-8,8s3.582,8,8,8h280.05c4.418,0,8-3.582,8-8S345.853,400.501,341.435,400.501z"/>
<g>
</g>
<g>
</g>
<g>
</g>
<g>
</g>
<g>
</g>
<g>
</g>
<g>
</g>
<g>
</g>
<g>
</g>
<g>
</g>
<g>
</g>
<g>
</g>
<g>
</g>
<g>
</g>
<g>
</g>
</svg>
