<svg xmlns="http://www.w3.org/2000/svg" xmlns:xlink="http://www.w3.org/1999/xlink" width="461.6" height="512" viewBox="0 0 461.6 512">
  <defs>
    <linearGradient id="linear-gradient" x1="-0.823" y1="0.5" x2="1" y2="0.5" gradientUnits="objectBoundingBox">
      <stop offset="0" stop-color="#0ebff2"/>
      <stop offset="1" stop-color="#b445fc"/>
    </linearGradient>
    <linearGradient id="linear-gradient-2" x1="0.373" y1="1" x2="0.525" y2="1" xlink:href="#linear-gradient"/>
    <linearGradient id="linear-gradient-6" x1="0" y1="0.541" x2="1" y2="0.549" xlink:href="#linear-gradient"/>
    <linearGradient id="linear-gradient-7" x1="0" y1="0.559" x2="1" y2="0.572" xlink:href="#linear-gradient"/>
  </defs>
  <g id="digmar" transform="translate(-25.2 0)">
    <g id="Group_19" data-name="Group 19">
      <g id="Group_14" data-name="Group 14">
        <g id="Group_13" data-name="Group 13">
          <g id="Group_3" data-name="Group 3">
            <g id="Group_2" data-name="Group 2">
              <g id="Group_1" data-name="Group 1">
                <path id="Path_1" data-name="Path 1" d="M29.1,412.7v31.1a13.977,13.977,0,0,0,14,14H468.8a13.977,13.977,0,0,0,14-14V412.7Z" fill="#15161b"/>
              </g>
            </g>
          </g>
          <g id="Group_6" data-name="Group 6">
            <g id="Group_5" data-name="Group 5">
              <g id="Group_4" data-name="Group 4">
                <path id="Path_2" data-name="Path 2" d="M435.3,457.8h33.6a13.87,13.87,0,0,0,13.9-13.9V412.8H449.3v31.1a13.956,13.956,0,0,1-14,13.9Z" fill="#15161b"/>
              </g>
            </g>
          </g>
          <g id="Group_9" data-name="Group 9">
            <g id="Group_8" data-name="Group 8">
              <g id="Group_7" data-name="Group 7">
                <path id="Path_3" data-name="Path 3" d="M76.6,457.8H43.1a13.87,13.87,0,0,1-13.9-13.9V412.8H62.7v31.1A13.934,13.934,0,0,0,76.6,457.8Z" fill="#15161b"/>
              </g>
            </g>
          </g>
          <g id="Group_12" data-name="Group 12">
            <g id="Group_11" data-name="Group 11">
              <g id="Group_10" data-name="Group 10">
                <path id="Path_4" data-name="Path 4" d="M482.8,122.8V412.7H29.2V122.8a13.956,13.956,0,0,1,13.9-14H468.8a14.041,14.041,0,0,1,14,14Z" fill="#15161b"/>
              </g>
            </g>
          </g>
          <path id="Path_5" data-name="Path 5" d="M323.5,508H188.4l22.8-50.2h89.6Z" fill="#15161b"/>
          <path id="Path_6" data-name="Path 6" d="M174.3,508" fill="#fff"/>
        </g>
      </g>
      <g id="Group_18" data-name="Group 18">
        <g id="Group_15" data-name="Group 15">
          <path id="Path_7" data-name="Path 7" d="M240.3,435.3a6.318,6.318,0,1,1-1.85-4.55A6.38,6.38,0,0,1,240.3,435.3Z" fill="#0ebff2"/>
        </g>
        <g id="Group_16" data-name="Group 16">
          <path id="Path_8" data-name="Path 8" d="M262.4,435.3a6.318,6.318,0,1,1-1.85-4.55A6.38,6.38,0,0,1,262.4,435.3Z" fill="#0ebff2"/>
        </g>
        <g id="Group_17" data-name="Group 17">
          <path id="Path_9" data-name="Path 9" d="M284.5,435.3a6.38,6.38,0,1,1-1.869-4.531A6.38,6.38,0,0,1,284.5,435.3Z" fill="#0ebff2"/>
        </g>
      </g>
    </g>
    <g id="Group_41" data-name="Group 41">
      <g id="Group_22" data-name="Group 22">
        <g id="Group_21" data-name="Group 21">
          <g id="Group_20" data-name="Group 20">
            <rect id="Rectangle_1" data-name="Rectangle 1" width="369.1" height="355.4" transform="translate(71.4 57.4)" fill="#15161b"/>
          </g>
        </g>
      </g>
      <g id="Group_25" data-name="Group 25">
        <g id="Group_24" data-name="Group 24">
          <g id="Group_23" data-name="Group 23">
            <rect id="Rectangle_2" data-name="Rectangle 2" width="25.7" height="355.4" transform="translate(414.8 57.4)" fill="#15161b"/>
          </g>
        </g>
      </g>
      <g id="Group_28" data-name="Group 28">
        <g id="Group_27" data-name="Group 27">
          <g id="Group_26" data-name="Group 26">
            <path id="Path_10" data-name="Path 10" d="M440.6,14V57.4H71.4V13.9A9.859,9.859,0,0,1,81.3,4H430.6a9.965,9.965,0,0,1,10,10Z" fill="#15161b"/>
          </g>
        </g>
      </g>
      <g id="Group_31" data-name="Group 31">
        <g id="Group_30" data-name="Group 30">
          <g id="Group_29" data-name="Group 29">
            <path id="Path_11" data-name="Path 11" d="M107.2,4a9.859,9.859,0,0,0-9.9,9.9V57.3H71.4V13.9A9.859,9.859,0,0,1,81.3,4Z" fill="#14151a"/>
          </g>
        </g>
      </g>
      <g id="Group_34" data-name="Group 34">
        <g id="Group_33" data-name="Group 33">
          <g id="Group_32" data-name="Group 32">
            <path id="Path_12" data-name="Path 12" d="M440.6,14V57.4H414.8V14a9.944,9.944,0,0,0-9.9-10h25.8a9.944,9.944,0,0,1,9.9,10Z" fill="url(#linear-gradient)"/>
          </g>
        </g>
      </g>
      <g id="Group_40" data-name="Group 40">
        <g id="Group_38" data-name="Group 38">
          <g id="Group_35" data-name="Group 35">
            <path id="Path_13" data-name="Path 13" d="M107.6,34.7H101a4,4,0,1,1,0-8h6.7a4,4,0,1,1-.1,8Z" fill="url(#linear-gradient-2)"/>
          </g>
          <g id="Group_36" data-name="Group 36">
            <path id="Path_14" data-name="Path 14" d="M140.1,34.7h-6.7a4,4,0,1,1,0-8h6.7a4,4,0,0,1,0,8Z" fill="url(#linear-gradient-2)"/>
          </g>
          <g id="Group_37" data-name="Group 37">
            <path id="Path_15" data-name="Path 15" d="M172.5,34.7h-6.7a4,4,0,1,1,0-8h6.7a4,4,0,0,1,0,8Z" fill="url(#linear-gradient-2)"/>
          </g>
        </g>
        <g id="Group_39" data-name="Group 39">
          <path id="Path_16" data-name="Path 16" d="M411,34.7H227.9a4,4,0,1,1,0-8H411a4,4,0,0,1,0,8Z" fill="url(#linear-gradient-2)"/>
        </g>
      </g>
      <path id="Path_17" data-name="Path 17" d="M468.8,104.8H444.5V14A13.956,13.956,0,0,0,430.6,0H81.4A13.87,13.87,0,0,0,67.5,13.9v90.9H43.1a17.9,17.9,0,0,0-17.9,18v321a18.053,18.053,0,0,0,18,18H205L185.8,504H174.2a4,4,0,0,0,0,8H337.6a4,4,0,0,0,0-8H326l-19-42.2H468.8a18.053,18.053,0,0,0,18-18v-321A18.053,18.053,0,0,0,468.8,104.8ZM75.4,13.9A5.911,5.911,0,0,1,81.3,8H430.6a5.933,5.933,0,0,1,5.9,6V53.4H75.4Zm0,47.5H436.5V408.8H75.4ZM33.2,122.8a9.944,9.944,0,0,1,9.9-10H67.4V408.7H33.2ZM317.3,504H194.6l19.1-42.2h84.5Zm161.5-60.2a10.029,10.029,0,0,1-10,10H43.1a10.029,10.029,0,0,1-10-10V416.7H478.8v27.1Zm0-35.1H444.5V112.8h24.3a10.162,10.162,0,0,1,10,10Z" fill="url(#linear-gradient-6)"/>
    </g>
    <g id="Group_67" data-name="Group 67">
      <g id="Group_60" data-name="Group 60">
        <g id="Group_55" data-name="Group 55">
          <g id="Group_42" data-name="Group 42">
            <path id="Path_18" data-name="Path 18" d="M168.2,203.1l30.4,73.5L154.1,295a6.293,6.293,0,0,1-8.2-3.4l-25.7-61.9a6.293,6.293,0,0,1,3.4-8.2Z" fill="#15161b"/>
          </g>
          <g id="Group_43" data-name="Group 43">
            <path id="Path_19" data-name="Path 19" d="M193.3,263.7l5.4,12.9L154.2,295a6.293,6.293,0,0,1-8.2-3.4l-5.4-12.9a6.293,6.293,0,0,0,8.2,3.4Z" fill="#15161b"/>
          </g>
          <g id="Group_44" data-name="Group 44">
            <path id="Path_20" data-name="Path 20" d="M168.2,203.2l5.4,12.9-44.5,18.4a6.293,6.293,0,0,0-3.4,8.2l-5.4-12.9a6.293,6.293,0,0,1,3.4-8.2Z" fill="#15161b"/>
          </g>
          <g id="Group_45" data-name="Group 45">
            <path id="Path_21" data-name="Path 21" d="M106.1,245.2,125,290.8a6.293,6.293,0,0,0,8.2,3.4l11.9-4.9-23.7-57.2L109.5,237a6.244,6.244,0,0,0-3.4,8.2Z" fill="#15161b"/>
          </g>
          <g id="Group_46" data-name="Group 46">
            <path id="Path_22" data-name="Path 22" d="M121.3,232.1l4.1,9.8-11.9,4.9a6.293,6.293,0,0,0-3.4,8.2l-4.1-9.8a6.293,6.293,0,0,1,3.4-8.2Z" fill="#15161b"/>
          </g>
          <g id="Group_47" data-name="Group 47">
            <path id="Path_23" data-name="Path 23" d="M140.9,279.5l4.1,9.8-11.9,4.9a6.293,6.293,0,0,1-8.2-3.4l-4.1-9.8a6.293,6.293,0,0,0,8.2,3.4Z" fill="#15161b"/>
          </g>
          <g id="Group_48" data-name="Group 48">
            <path id="Path_24" data-name="Path 24" d="M287.1,197c20,48.4,45.5,85,60.7,89l-70.375-4.387L198.6,276.7l-30.4-73.5L267.1,91.1C259.1,104.7,267.1,148.6,287.1,197Z" fill="#15161b"/>
          </g>
          <g id="Group_49" data-name="Group 49">
            <path id="Path_25" data-name="Path 25" d="M347.8,286l-149.2-9.3-7.9-19,133.5,7.4C333.2,276.8,341.4,284.3,347.8,286Z" fill="#15161b"/>
          </g>
          <g id="Group_50" data-name="Group 50">
            <path id="Path_26" data-name="Path 26" d="M267.1,91.1c-3.3,5.7-3.9,16.8-1.9,31.4L176,222.1l-7.9-19Z" fill="#15161b"/>
          </g>
          <g id="Group_51" data-name="Group 51">
            <path id="Path_27" data-name="Path 27" d="M337.3,176.2C360,231,367.2,280,353.3,285.8c-13.9,5.7-43.5-34-66.2-88.8s-29.9-103.8-16-109.6S314.6,121.4,337.3,176.2Z" fill="#15161b"/>
          </g>
          <g id="Group_52" data-name="Group 52">
            <path id="Path_28" data-name="Path 28" d="M337.3,176.2C360,231,367.1,280,353.3,285.8c-7.7,3.2-20.4-7.8-34-27.6,6.7,6.2,12.6,8.8,16.9,7,13.8-5.7,6.7-54.8-16-109.6-10-24.2-21.4-45.4-32.2-61.1C302.8,108,321.7,138.5,337.3,176.2Z" fill="#15161b"/>
          </g>
          <g id="Group_53" data-name="Group 53">
            <path id="Path_29" data-name="Path 29" d="M325.1,181.2a34.064,34.064,0,0,1-18.5,44.5l-5.2,2.2c-4.9-9.5-9.8-20-14.3-31-4.6-11-8.5-21.8-11.8-32l5.2-2.2A34.14,34.14,0,0,1,325.1,181.2Z" fill="#15161b"/>
          </g>
          <g id="Group_54" data-name="Group 54">
            <path id="Path_30" data-name="Path 30" d="M325.1,181.2a34.064,34.064,0,0,1-18.5,44.5l-5.2,2.2c-2.4-4.6-4.8-9.5-7.1-14.5a34.087,34.087,0,0,0,17.6-44.2,43.883,43.883,0,0,0-2.7-5.3,34.065,34.065,0,0,1,15.9,17.3Z" fill="#15161b"/>
          </g>
        </g>
        <g id="Group_59" data-name="Group 59">
          <g id="Group_56" data-name="Group 56">
            <path id="Path_31" data-name="Path 31" d="M205.3,309.2c3.1,7.5-2.6,9.9.5,17.4,3.1,7.6,8.9,5.2,12,12.7,3.1,7.6-2.6,9.9.5,17.4,3.1,7.6,8.9,5.2,12,12.7l-31.9,13.2a7.134,7.134,0,0,1-9.3-3.8L154.3,295l38.5-16c3.1,7.6-2.6,9.9.5,17.5S202.2,301.7,205.3,309.2Z" fill="#15161b"/>
          </g>
          <g id="Group_57" data-name="Group 57">
            <path id="Path_32" data-name="Path 32" d="M193.3,296.6c.1.2.1.3.2.5l-32.8,13.6-6.5-15.6,38.6-16C195.9,286.6,190.2,289,193.3,296.6Z" fill="#15161b"/>
          </g>
          <g id="Group_58" data-name="Group 58">
            <path id="Path_33" data-name="Path 33" d="M230.3,369.5l-32,13.2a7.134,7.134,0,0,1-9.3-3.8l-6.5-15.6a7.134,7.134,0,0,0,9.3,3.8L218,356.2c0,.2.1.3.2.5C221.4,364.4,227.2,362,230.3,369.5Z" fill="#15161b"/>
          </g>
          <path id="Path_34" data-name="Path 34" d="M341,174.6c-21.2-51.1-52.5-98.8-71.4-91-3.1,1.3,4.8-7.1-103.8,116.1l-43.6,18.1a10.2,10.2,0,0,0-6,12l-8.3,3.4a10.3,10.3,0,0,0-5.6,13.4l18.9,45.6a10.233,10.233,0,0,0,13.4,5.6l8.4-3.5a10.2,10.2,0,0,0,8.8,5.1h0l33.5,80.9a11.142,11.142,0,0,0,14.5,6l31.9-13.2a3.962,3.962,0,0,0,2.2-2.2,4.154,4.154,0,0,0,0-3.1c-4.4-10.6-15.1-7.4-12.1-18.8,2.3-8.5-.5-15.2-8.1-19.6-4.5-2.6-5.7-5.6-4.4-10.6,2.2-8.4-.5-15.2-8.1-19.6-4.4-2.6-5.7-5.6-4.4-10.6a18.217,18.217,0,0,0,.7-7.4l1.8-.7c151.5,9.7,150.4,10.9,155.5,8.7C373.7,281.6,362.2,225.8,341,174.6ZM131.6,290.5a2.321,2.321,0,0,1-3-1.2l-18.9-45.6a2.357,2.357,0,0,1,1.2-3l8.2-3.4,20.6,49.8Zm18.1-.3-25.7-62a2.321,2.321,0,0,1,1.2-3L166,208.3l27.4,66.1-40.7,16.9h-.1A2.2,2.2,0,0,1,149.7,290.2Zm40-5.5c-.1.6-.3,1.3-.5,2.1-2.2,8.4.5,15.1,8.1,19.5,4.4,2.6,5.7,5.6,4.4,10.6-2.2,8.4.5,15.2,8.1,19.6,4.5,2.6,5.7,5.7,4.4,10.6-2.2,8.4.5,15.1,8.1,19.5a14.191,14.191,0,0,1,1.8,1.1L196.8,379a3.122,3.122,0,0,1-4.1-1.7l-33.2-80.2c1-.3,30.6-12.6,30.2-12.4Zm11.7-11.9-28.5-68.9,87.2-98.8c-.8,27.2,12.8,68,23.4,93.4,10.6,25.6,29.8,63.9,49.5,82.6Zm78.9-105.6,1.8-.7a30.085,30.085,0,1,1,23,55.6l-1.8.7c-4.4-8.6-8.6-17.8-12.5-27.4-3.9-9.5-7.5-19-10.5-28.2ZM351.8,282c-11.9,5-38.6-40.6-44.7-52.1l1.2-.5A38.108,38.108,0,1,0,279.1,159l-1.2.5C274.1,147,260.7,96,272.7,91c15.9-6.6,50.8,62.2,60.9,86.6C358.1,236.9,360.7,278.4,351.8,282Z" fill="url(#linear-gradient-7)"/>
        </g>
      </g>
      <g id="Group_66" data-name="Group 66">
        <g id="Group_61" data-name="Group 61">
          <path id="Path_35" data-name="Path 35" d="M397.9,236.6l-19.8-7.4a4.021,4.021,0,1,1,2.9-7.5l19.8,7.4a3.987,3.987,0,0,1,2.3,5.2A4.059,4.059,0,0,1,397.9,236.6Z" fill="#b445fc"/>
        </g>
        <g id="Group_62" data-name="Group 62">
          <path id="Path_36" data-name="Path 36" d="M385.3,195.6a4,4,0,0,1-.1-8l21.2-.5h.1a4,4,0,0,1,.1,8C406.1,195.2,383.9,195.7,385.3,195.6Z" fill="#b445fc"/>
        </g>
        <g id="Group_63" data-name="Group 63">
          <path id="Path_37" data-name="Path 37" d="M374.7,160.7a3.974,3.974,0,0,1,2.2-5.2l19.5-8.1a3.993,3.993,0,0,1,3,7.4l-19.5,8.1a4.06,4.06,0,0,1-5.2-2.2Z" fill="#b445fc"/>
        </g>
        <g id="Group_64" data-name="Group 64">
          <path id="Path_38" data-name="Path 38" d="M357.4,134.1a4.076,4.076,0,0,1,.1-5.7l15.3-14.6a4.031,4.031,0,1,1,5.6,5.8L363,134.2a3.953,3.953,0,0,1-5.6-.1Z" fill="#b445fc"/>
        </g>
        <g id="Group_65" data-name="Group 65">
          <path id="Path_39" data-name="Path 39" d="M330.6,115.1a4.03,4.03,0,0,1-2-5.3l8.7-19.3a4.006,4.006,0,1,1,7.3,3.3l-8.7,19.3a3.947,3.947,0,0,1-5.3,2Z" fill="#b445fc"/>
        </g>
      </g>
    </g>
  </g>
</svg>
