<svg xmlns="http://www.w3.org/2000/svg" xmlns:xlink="http://www.w3.org/1999/xlink" width="88" height="88" viewBox="0 0 88 88">
  <defs>
    <filter id="Oval" x="0" y="0" width="88" height="88" filterUnits="userSpaceOnUse">
      <feOffset dy="3" input="SourceAlpha"/>
      <feGaussianBlur stdDeviation="3" result="blur"/>
      <feFlood flood-opacity="0.161"/>
      <feComposite operator="in" in2="blur"/>
      <feComposite in="SourceGraphic"/>
    </filter>
  </defs>
  <g id="Group_18" data-name="Group 18" transform="translate(-910.398 -3207)">
    <g id="Linkedin" transform="translate(919.398 3213)">
      <g transform="matrix(1, 0, 0, 1, -9, -6)" filter="url(#Oval)">
        <circle id="Oval-2" data-name="Oval" cx="35" cy="35" r="35" transform="translate(9 6)" fill="#0ebff2"/>
      </g>
      <path id="Linkedin-2" data-name="Linkedin" d="M31.029,39.129V26.423c0-3.036-.045-6.935-4.21-6.935-4.223,0-4.856,3.309-4.856,6.709V39.129h-8.1V12.992h7.754v3.581h.106A8.519,8.519,0,0,1,29.4,12.358c8.207,0,9.73,5.408,9.73,12.449V39.129Zm-22.282,0H.634V12.992H8.749V39.127h0Zm5.1-26.136h.015ZM0,4.714A4.706,4.706,0,1,1,4.706,9.427,4.715,4.715,0,0,1,0,4.714Z" transform="translate(15.436 14.818)" fill="#fff"/>
    </g>
  </g>
</svg>
