<svg id="marana" xmlns="http://www.w3.org/2000/svg" width="290.625" height="290.625" viewBox="0 0 290.625 290.625">
  <g id="Group_68" data-name="Group 68">
    <path id="Path_40" data-name="Path 40" d="M145.313,154.688A9.375,9.375,0,1,1,150,137.236V4.8c-1.561-.052-3.117-.117-4.688-.117a140.625,140.625,0,1,0,0,281.25c1.57,0,3.127-.066,4.688-.117V153.389A9.318,9.318,0,0,1,145.313,154.688Z" fill="#15161b"/>
    <path id="Path_41" data-name="Path 41" d="M280.955,154.383l9.356.614c.206-3.2.314-6.459.314-9.684H281.25Q281.25,149.882,280.955,154.383Z" fill="#0ebff2"/>
    <path id="Path_42" data-name="Path 42" d="M43.261,235.125l-7.031,6.206a148.4,148.4,0,0,0,13.439,13.387l6.173-7.059A137.908,137.908,0,0,1,43.261,235.125Z" fill="#0ebff2"/>
    <path id="Path_43" data-name="Path 43" d="M64.744,266.264a145.953,145.953,0,0,0,16.448,9.487l4.144-8.414a135.341,135.341,0,0,1-15.389-8.878Z" fill="#0ebff2"/>
    <path id="Path_44" data-name="Path 44" d="M98.752,283a144.863,144.863,0,0,0,18.361,4.889l1.809-9.2a134.119,134.119,0,0,1-17.17-4.57Z" fill="#0ebff2"/>
    <path id="Path_45" data-name="Path 45" d="M258.3,220.931l7.786,5.217a145.4,145.4,0,0,0,9.52-16.434l-8.4-4.158A136.982,136.982,0,0,1,258.3,220.931Z" fill="#0ebff2"/>
    <path id="Path_46" data-name="Path 46" d="M12.033,172.209l-9.192,1.842a145.211,145.211,0,0,0,4.95,18.328l8.873-3.028A135.6,135.6,0,0,1,12.033,172.209Z" fill="#0ebff2"/>
    <path id="Path_47" data-name="Path 47" d="M15.1,209.888a144.875,144.875,0,0,0,9.539,16.4l7.777-5.227a136.511,136.511,0,0,1-8.92-15.347Z" fill="#0ebff2"/>
    <path id="Path_48" data-name="Path 48" d="M136.538,280.969l-.6,9.361q4.647.3,9.375.3c3.211,0,6.445-.1,9.6-.309l-.614-9.356A137.961,137.961,0,0,1,136.538,280.969Z" fill="#0ebff2"/>
    <path id="Path_49" data-name="Path 49" d="M274.022,189.159l8.878,3.023a144.153,144.153,0,0,0,4.927-18.352L278.63,172A134.943,134.943,0,0,1,274.022,189.159Z" fill="#0ebff2"/>
    <path id="Path_50" data-name="Path 50" d="M171.909,278.648l1.828,9.192a145.066,145.066,0,0,0,18.342-4.908l-3.019-8.883A135.071,135.071,0,0,1,171.909,278.648Z" fill="#0ebff2"/>
    <path id="Path_51" data-name="Path 51" d="M234.9,247.561l6.178,7.05A146.232,146.232,0,0,0,254.5,241.2l-7.041-6.188A137.757,137.757,0,0,1,234.9,247.561Z" fill="#0ebff2"/>
    <path id="Path_52" data-name="Path 52" d="M205.444,267.267l4.153,8.4a145.8,145.8,0,0,0,16.425-9.5l-5.212-7.791A137.373,137.373,0,0,1,205.444,267.267Z" fill="#0ebff2"/>
    <path id="Path_53" data-name="Path 53" d="M9.375,145.313c0-74.958,60.98-135.938,135.938-135.938A135.3,135.3,0,0,1,213.436,27.7l-13.617,5.447,3.483,8.7L229.688,31.3V4.688h-9.375V20.935A144.548,144.548,0,0,0,145.313,0C65.189,0,0,65.189,0,145.313c0,3.225.108,6.487.314,9.68l9.356-.614Q9.374,149.885,9.375,145.313Z" fill="#0ebff2"/>
    <path id="Path_54" data-name="Path 54" d="M248.438,112.5a13.906,13.906,0,0,0-2.128-7.345L271.992,64.8a14.136,14.136,0,1,0-7.364-5.892L238.945,99.263a13.643,13.643,0,0,0-14.123,2.977L206.053,90.98a13.637,13.637,0,0,0,.2-1.917,14.063,14.063,0,0,0-28.126,0,13.89,13.89,0,0,0,1.772,6.689l-29.25,36.563c-.206-.084-.436-.127-.647-.2V28.125h-4.688a117.188,117.188,0,1,0,0,234.375H150V158.513a14.044,14.044,0,0,0,9.375-13.2,13.89,13.89,0,0,0-1.772-6.689l29.25-36.563a13.9,13.9,0,0,0,14.887-2.738l18.769,11.259a13.637,13.637,0,0,0-.2,1.917,14.063,14.063,0,0,0,28.126,0Zm28.125-65.625a4.688,4.688,0,1,1-4.688,4.688A4.7,4.7,0,0,1,276.563,46.875ZM140.625,93.548A106.567,106.567,0,0,1,103,84.332,117.241,117.241,0,0,1,140.625,41.16ZM94.795,80.339A132.492,132.492,0,0,1,72.764,65.667a107.5,107.5,0,0,1,55.6-26.808A131.926,131.926,0,0,0,94.795,80.339Zm-4.026,8.6A140.943,140.943,0,0,0,79.8,140.625H37.617a107.393,107.393,0,0,1,28.448-68.3A137.421,137.421,0,0,0,90.769,88.936ZM79.795,150a140.82,140.82,0,0,0,10.973,51.689,137.674,137.674,0,0,0-24.7,16.6A107.345,107.345,0,0,1,37.617,150Zm15,60.286a131.915,131.915,0,0,0,33.572,41.48,107.464,107.464,0,0,1-55.6-26.808A132.177,132.177,0,0,1,94.795,210.286Zm8.391-4.069a106.374,106.374,0,0,1,37.439-9.136V249.37A120.342,120.342,0,0,1,103.186,206.217Zm37.439-18.52a115.838,115.838,0,0,0-41.442,9.923A132.168,132.168,0,0,1,89.175,150h42.942a14.051,14.051,0,0,0,8.513,8.513V187.7Zm-8.512-47.072H89.166a133.6,133.6,0,0,1,9.863-47.681,115.915,115.915,0,0,0,41.6,9.984v29.184A14.049,14.049,0,0,0,132.113,140.625Zm13.2,9.375A4.688,4.688,0,1,1,150,145.312,4.7,4.7,0,0,1,145.313,150Zm46.875-56.25a4.688,4.688,0,1,1,4.688-4.688A4.7,4.7,0,0,1,192.188,93.75Zm42.187,23.438a4.688,4.688,0,1,1,4.688-4.688A4.7,4.7,0,0,1,234.375,117.188Z" fill="#0ebff2"/>
  </g>
</svg>
